<?xml version="1.0" encoding="UTF-8"?>
<!DOCTYPE svg PUBLIC "-//W3C//DTD SVG 1.1//EN" "http://www.w3.org/Graphics/SVG/1.1/DTD/svg11.dtd">
<svg xmlns="http://www.w3.org/2000/svg" version="1.1" width="161px" height="164px" style="shape-rendering:geometricPrecision; text-rendering:geometricPrecision; image-rendering:optimizeQuality; fill-rule:evenodd; clip-rule:evenodd" xmlns:xlink="http://www.w3.org/1999/xlink">
<g><path style="opacity:1" fill="#150f27" d="M -0.5,-0.5 C 53.1667,-0.5 106.833,-0.5 160.5,-0.5C 160.5,54.1667 160.5,108.833 160.5,163.5C 106.833,163.5 53.1667,163.5 -0.5,163.5C -0.5,108.833 -0.5,54.1667 -0.5,-0.5 Z"/></g>
<g><path style="opacity:1" fill="#bca215" d="M 37.5,45.5 C 48.6716,44.0336 59.005,46.2003 68.5,52C 70.8461,53.0128 72.5128,54.6794 73.5,57C 70.6992,60.9684 67.3659,64.4684 63.5,67.5C 53.9844,59.4467 43.9844,58.6134 33.5,65C 25.6906,73.6113 24.5239,83.1113 30,93.5C 37.5273,103.156 46.6939,104.989 57.5,99C 60.3208,96.8587 61.6541,94.0254 61.5,90.5C 56.1667,90.5 50.8333,90.5 45.5,90.5C 45.5,86.1667 45.5,81.8333 45.5,77.5C 56.5,77.5 67.5,77.5 78.5,77.5C 81.3623,97.9731 73.029,111.14 53.5,117C 23.0081,119.174 8.17481,105.007 9,74.5C 13.3145,59.6859 22.8145,50.0192 37.5,45.5 Z"/></g>
<g><path style="opacity:1" fill="#bca215" d="M 115.5,45.5 C 126.755,44.3975 137.089,46.8975 146.5,53C 147.687,54.0195 148.687,55.1861 149.5,56.5C 146.559,60.9441 143.059,64.9441 139,68.5C 129.279,59.5785 119.279,59.2452 109,67.5C 103.058,76.849 103.058,86.1824 109,95.5C 119.453,103.475 129.953,103.475 140.5,95.5C 143.664,99.1582 146.33,103.158 148.5,107.5C 145.916,111.468 142.249,113.968 137.5,115C 120.646,120.932 106.146,117.432 94,104.5C 81.9279,84.8064 84.4279,67.3064 101.5,52C 106.034,49.3327 110.7,47.166 115.5,45.5 Z"/></g>
</svg>
