<svg width="229" height="81" viewBox="0 0 229 81" fill="none" xmlns="http://www.w3.org/2000/svg">
<path fill-rule="evenodd" clip-rule="evenodd" d="M180.768 5.6061C206.467 10.7079 219.136 17.9837 221.936 29.2985C222.49 31.635 223.316 32.9825 225.073 34.5738C228.911 44.1517 232.469 56.5185 217.151 65.8003C201.013 75.551 157.674 81.574 111.976 80.4046C105.43 80.2463 94.8219 80.1558 88.4307 80.2502C8.81724 81.3491 -15.4767 57.7144 10.6953 35.9083C26.6352 22.5944 49.0188 14.9031 85.5691 10.025C120.364 5.41786 165.513 10.4736 197.345 21.3288C205.664 24.1665 206.839 22.471 204.496 20.7734C196.241 14.7474 173.036 8.5075 148.394 6.08634C126.412 3.91389 116.223 3.17894 99.3842 5.2517C92.8066 6.05143 89.3305 3.09109 99.5146 1.37369C110.298 -0.375314 152.844 0.0633554 180.768 5.6061ZM15.5987 60.8534C25.3155 69.6896 49.2305 74.1121 88.6417 74.2722C220.352 74.7924 213.481 37.9258 213.481 37.9258C213.364 37.8953 174.403 11.6934 92.5274 14.6275C52.2516 16.0322 -13.4953 34.3831 15.5987 60.8534ZM171.945 71.3818C158.041 74.5765 174.198 72.7731 194.731 68.8629C233.001 61.5833 221.394 46.7414 220.359 43.9922C216.247 57.5966 191.396 66.9292 171.945 71.3818Z" fill="#C0A615"/>
</svg>
